<svg width="140" height="104" viewBox="0 0 140 104" fill="none" xmlns="http://www.w3.org/2000/svg">
  <path d="M68 50C52 31 28 25 12 31C3 34 1 42 8 49C16 57 35 62 52 58L68 50Z" stroke="#111111" stroke-width="3.5" stroke-linecap="round" stroke-linejoin="round"/>
  <path d="M72 50C88 31 112 25 128 31C137 34 139 42 132 49C124 57 105 62 88 58L72 50Z" stroke="#111111" stroke-width="3.5" stroke-linecap="round" stroke-linejoin="round"/>
  <rect x="61" y="42" width="18" height="16" rx="6" stroke="#111111" stroke-width="3.5"/>
  <path d="M61 56L48 77" stroke="#111111" stroke-width="3.5" stroke-linecap="round"/>
  <path d="M79 56L92 77" stroke="#111111" stroke-width="3.5" stroke-linecap="round"/>
  <path d="M48 77C42 87 44 95 55 96" stroke="#111111" stroke-width="3.5" stroke-linecap="round"/>
  <path d="M92 77C98 87 96 95 85 96" stroke="#111111" stroke-width="3.5" stroke-linecap="round"/>
</svg>
